<svg width="32" height="32" viewBox="0 0 32 32" fill="none" xmlns="http://www.w3.org/2000/svg">
<path fill-rule="evenodd" clip-rule="evenodd" d="M13.5 5C18.044 5 21.7558 8.56617 21.9884 13.0518L23.9857 12.9482C23.6983 7.40527 19.1139 3 13.5 3C7.701 3 2.99999 7.70101 2.99999 13.5C2.99999 15.1999 3.40468 16.8081 4.12383 18.2308C4.12334 18.2488 4.13164 18.3485 4.09277 18.585C4.05206 18.8328 3.98574 19.0999 3.90696 19.4172C3.8807 19.523 3.85305 19.6344 3.82451 19.7524C3.7208 20.1814 3.60521 20.7018 3.59055 21.1927C3.57634 21.6684 3.6491 22.3362 4.15663 22.8436C4.66404 23.3508 5.33174 23.4236 5.80747 23.4094C6.2984 23.3948 6.8188 23.2793 7.24788 23.1756C7.36623 23.147 7.47783 23.1193 7.58384 23.093C7.90088 23.0143 8.16784 22.9481 8.41539 22.9074C8.65161 22.8686 8.75135 22.8768 8.76942 22.8763C10.0369 23.5169 11.4519 23.9081 12.9482 23.9857L13.0518 21.9884C11.8259 21.9248 10.6702 21.6019 9.63698 21.0737C9.09706 20.7977 8.47256 20.8711 8.09104 20.9339C7.75594 20.9889 7.3783 21.0829 7.04387 21.166C6.9514 21.189 6.86223 21.2112 6.77818 21.2315C6.34692 21.3357 6.0086 21.4025 5.7479 21.4103C5.67929 21.4123 5.62917 21.4099 5.59375 21.4061C5.59006 21.3708 5.58761 21.3208 5.58965 21.2524C5.59744 20.9918 5.66426 20.6536 5.76851 20.2224C5.7888 20.1385 5.81095 20.0495 5.83391 19.9572C5.91716 19.6226 6.01119 19.2447 6.0663 18.9094C6.12905 18.5275 6.20232 17.9031 5.92626 17.363C5.33433 16.2051 4.99999 14.893 4.99999 13.5C4.99999 8.80558 8.80557 5 13.5 5ZM5.60768 21.4791C5.6077 21.4791 5.60749 21.4786 5.60702 21.4775ZM5.52233 21.3928C5.52134 21.3924 5.52081 21.3922 5.5208 21.3922Z" fill="#5F5F5F"/>
<path fill-rule="evenodd" clip-rule="evenodd" d="M20.5 14C16.9101 14 14 16.9101 14 20.5C14 24.0899 16.9101 27 20.5 27C21.5657 27 22.5687 26.7443 23.4539 26.2918C23.947 26.0397 24.5026 26.1115 24.8044 26.1611C25.0783 26.2061 25.3885 26.2833 25.6532 26.3492C25.7247 26.3669 25.7929 26.3839 25.8561 26.3992C26.1391 26.4676 26.3581 26.512 26.5282 26.5282C26.512 26.3582 26.4675 26.1394 26.3992 25.8566C26.3839 25.7935 26.367 25.7254 26.3492 25.654C26.2833 25.3892 26.206 25.0789 26.161 24.8047C26.1113 24.5027 26.0397 23.9471 26.2918 23.4539C26.7443 22.5687 27 21.5657 27 20.5C27 16.9101 24.0899 14 20.5 14ZM26.5291 26.7411C26.529 26.741 26.5294 26.7388 26.5305 26.7349C26.5297 26.7393 26.5292 26.7412 26.5291 26.7411ZM26.7349 26.5304C26.7388 26.5293 26.741 26.5289 26.7411 26.529C26.7412 26.5291 26.7393 26.5297 26.7349 26.5304ZM12 20.5C12 15.8056 15.8056 12 20.5 12C25.1944 12 29 15.8056 29 20.5C29 21.8578 28.6809 23.1438 28.1128 24.2846C28.1138 24.3169 28.1179 24.3791 28.1345 24.4804C28.1651 24.6669 28.2147 24.8665 28.2761 25.1139C28.2972 25.1988 28.3196 25.2892 28.3432 25.3867C28.425 25.7251 28.5214 26.1551 28.5337 26.5669C28.5455 26.9635 28.4872 27.5635 28.0252 28.0254C27.5632 28.4872 26.9634 28.5455 26.5668 28.5336C26.155 28.5214 25.725 28.425 25.3864 28.3433C25.2888 28.3197 25.1981 28.2972 25.1132 28.2761C24.866 28.2148 24.6664 28.1653 24.48 28.1346C24.3789 28.118 24.3167 28.1139 24.2844 28.1129C23.1436 28.681 21.8577 29 20.5 29C15.8056 29 12 25.1944 12 20.5Z" fill="#5F5F5F"/>
</svg>
