<svg width="32" height="32" viewBox="0 0 32 32" fill="none" xmlns="http://www.w3.org/2000/svg">
<path d="M8.22182 6.8076C7.8313 6.41708 7.19813 6.41708 6.80761 6.8076C6.41709 7.19813 6.41709 7.83129 6.80761 8.22182L14.5858 16L6.80761 23.7782C6.41709 24.1687 6.41709 24.8019 6.80761 25.1924C7.19814 25.5829 7.8313 25.5829 8.22183 25.1924L16 17.4142L23.7781 25.1923C24.1686 25.5828 24.8017 25.5828 25.1923 25.1923C25.5828 24.8017 25.5828 24.1686 25.1923 23.778L17.4142 16L25.1924 8.22182C25.5829 7.83129 25.5829 7.19813 25.1924 6.8076C24.8019 6.41708 24.1687 6.41708 23.7782 6.8076L16 14.5858L8.22182 6.8076Z" fill="white"/>
</svg>
