<svg width="32" height="37" viewBox="0 0 32 37" fill="none" xmlns="http://www.w3.org/2000/svg">
<rect x="13.5" y="32" width="5" height="5" rx="2.5" fill="#D85988"/>
<path d="M9.60002 9.2C10.0418 9.53138 10.1314 10.1582 9.80002 10.6C9.24312 11.3425 9.18785 11.9862 9.43637 12.6489C9.71724 13.3978 10.4256 14.2598 11.6247 15.2191C12.056 15.5642 12.1259 16.1935 11.7808 16.6247C11.4358 17.056 10.8065 17.1259 10.3753 16.7809C9.07446 15.7402 8.03286 14.6022 7.56372 13.3511C7.06222 12.0138 7.2569 10.6575 8.20002 9.4C8.5314 8.95817 9.1582 8.86863 9.60002 9.2Z" fill="#D85988"/>
<path d="M13.5941 17.265C13.1881 16.8905 12.5555 16.916 12.181 17.3219C11.8065 17.7279 11.832 18.3605 12.238 18.735L13.3219 19.735C13.7279 20.1095 14.3605 20.084 14.735 19.6781C15.1095 19.2721 15.084 18.6395 14.6781 18.265L13.5941 17.265Z" fill="#D85988"/>
<path fill-rule="evenodd" clip-rule="evenodd" d="M5.08137 6.23358C7.88824 3.25547 12.465 3.25547 15.2719 6.23358L16 7.00612L16.7281 6.23358C19.535 3.25547 24.1118 3.25547 26.9186 6.23358C29.6938 9.17804 29.6938 13.9288 26.9186 16.8733L16.7277 27.6859C16.5388 27.8864 16.2755 28 16 28C15.7245 28 15.4612 27.8864 15.2723 27.6859L5.08137 16.8733C2.30621 13.9288 2.30621 9.17804 5.08137 6.23358ZM13.8164 7.60533C11.7991 5.46489 8.55418 5.46489 6.53681 7.60533C4.48773 9.77941 4.48773 13.3274 6.53681 15.5015L16 25.542L25.4632 15.5015C27.5123 13.3274 27.5123 9.77941 25.4632 7.60533C23.4458 5.46489 20.2009 5.46489 18.1836 7.60533L16.7277 9.14999C16.5388 9.35046 16.2755 9.46411 16 9.46411C15.7245 9.46411 15.4612 9.35046 15.2723 9.14999L13.8164 7.60533Z" fill="#D85988"/>
</svg>
