<svg width="32" height="37" viewBox="0 0 32 37" fill="none" xmlns="http://www.w3.org/2000/svg">
<path fill-rule="evenodd" clip-rule="evenodd" d="M16.7071 5.12132C16.3166 4.7308 15.6834 4.7308 15.2929 5.12132L6.008 14.4062C5.38873 15.0255 5.07099 15.8844 5.13816 16.7576L5.85501 26.0767C5.89509 26.5977 6.32953 27 6.85206 27H13V22C13 20.3431 14.3431 19 16 19C17.6569 19 19 20.3431 19 22V27H25.1479C25.6705 27 26.1049 26.5977 26.145 26.0767L26.8618 16.7576C26.929 15.8844 26.6113 15.0255 25.992 14.4062L16.7071 5.12132ZM13.8787 3.70711C15.0503 2.53554 16.9497 2.53554 18.1213 3.70711L27.4062 12.992C28.4383 14.0241 28.9679 15.4557 28.856 16.911L28.1391 26.2301C28.0189 27.7931 26.7156 29 25.1479 29H19C17.8954 29 17 28.1046 17 27V22C17 21.4477 16.5523 21 16 21C15.4477 21 15 21.4477 15 22V27C15 28.1046 14.1046 29 13 29H6.85206C5.28445 29 3.98113 27.7931 3.8609 26.2301L3.14405 16.911C3.0321 15.4557 3.56168 14.0241 4.59379 12.992L13.8787 3.70711Z" fill="#D85988"/>
<rect x="13.5" y="32" width="5" height="5" rx="2.5" fill="#D85988"/>
</svg>
