<svg width="32" height="32" viewBox="0 0 32 32" fill="none" xmlns="http://www.w3.org/2000/svg">
<path fill-rule="evenodd" clip-rule="evenodd" d="M13.8164 7.60533C11.7991 5.46489 8.55418 5.46489 6.53681 7.60533C4.48773 9.77941 4.48773 13.3274 6.53681 15.5015L16 25.542L25.4632 15.5015C27.5123 13.3274 27.5123 9.77941 25.4632 7.60533C23.4458 5.46489 20.2009 5.46489 18.1836 7.60533L16.7277 9.14999C16.5388 9.35046 16.2755 9.46411 16 9.46411C15.7245 9.46411 15.4612 9.35046 15.2723 9.14999L13.8164 7.60533ZM5.08137 6.23358C7.88824 3.25547 12.465 3.25547 15.2719 6.23358L16 7.00612L16.7281 6.23358C19.535 3.25547 24.1118 3.25547 26.9186 6.23358C29.6938 9.17804 29.6938 13.9288 26.9186 16.8733L16.7277 27.6859C16.5388 27.8864 16.2755 28 16 28C15.7245 28 15.4612 27.8864 15.2723 27.6859L5.08137 16.8733C2.30621 13.9288 2.30621 9.17804 5.08137 6.23358Z" fill="white"/>
</svg>
